G04 #@! TF.GenerationSoftware,KiCad,Pcbnew,(5.0.1)-4*
G04 #@! TF.CreationDate,2020-01-15T00:06:17+05:45*
G04 #@! TF.ProjectId,RC_Car,52435F4361722E6B696361645F706362,rev?*
G04 #@! TF.SameCoordinates,Original*
G04 #@! TF.FileFunction,Copper,L1,Top,Signal*
G04 #@! TF.FilePolarity,Positive*
%FSLAX46Y46*%
G04 Gerber Fmt 4.6, Leading zero omitted, Abs format (unit mm)*
G04 Created by KiCad (PCBNEW (5.0.1)-4) date 15-Jan-20 12:06:17 AM*
%MOMM*%
%LPD*%
G01*
G04 APERTURE LIST*
G04 #@! TA.AperFunction,ComponentPad*
%ADD10C,1.200000*%
G04 #@! TD*
G04 #@! TA.AperFunction,ComponentPad*
%ADD11R,1.200000X1.200000*%
G04 #@! TD*
G04 #@! TA.AperFunction,ComponentPad*
%ADD12R,1.800000X1.800000*%
G04 #@! TD*
G04 #@! TA.AperFunction,ComponentPad*
%ADD13C,1.800000*%
G04 #@! TD*
G04 #@! TA.AperFunction,Conductor*
%ADD14C,0.100000*%
G04 #@! TD*
G04 #@! TA.AperFunction,ComponentPad*
%ADD15C,2.700000*%
G04 #@! TD*
G04 #@! TA.AperFunction,ComponentPad*
%ADD16C,1.600000*%
G04 #@! TD*
G04 #@! TA.AperFunction,ComponentPad*
%ADD17O,1.600000X1.600000*%
G04 #@! TD*
G04 #@! TA.AperFunction,ComponentPad*
%ADD18O,0.850000X0.850000*%
G04 #@! TD*
G04 #@! TA.AperFunction,ComponentPad*
%ADD19O,2.400000X1.600000*%
G04 #@! TD*
G04 #@! TA.AperFunction,ComponentPad*
%ADD20R,2.400000X1.600000*%
G04 #@! TD*
G04 #@! TA.AperFunction,ComponentPad*
%ADD21R,1.905000X2.000000*%
G04 #@! TD*
G04 #@! TA.AperFunction,ComponentPad*
%ADD22O,1.905000X2.000000*%
G04 #@! TD*
G04 #@! TA.AperFunction,ComponentPad*
%ADD23C,1.500000*%
G04 #@! TD*
G04 #@! TA.AperFunction,ComponentPad*
%ADD24C,1.700000*%
G04 #@! TD*
G04 #@! TA.AperFunction,ComponentPad*
%ADD25O,1.700000X1.950000*%
G04 #@! TD*
G04 #@! TA.AperFunction,ViaPad*
%ADD26C,2.500000*%
G04 #@! TD*
G04 APERTURE END LIST*
D10*
G04 #@! TO.P,C2,2*
G04 #@! TO.N,gnd*
X65000000Y-40640000D03*
D11*
G04 #@! TO.P,C2,1*
G04 #@! TO.N,+12V*
X63500000Y-40640000D03*
G04 #@! TD*
G04 #@! TO.P,C3,1*
G04 #@! TO.N,Net-(BluetoothModule1-Pad5)*
X69620000Y-40640000D03*
D10*
G04 #@! TO.P,C3,2*
G04 #@! TO.N,gnd*
X68120000Y-40640000D03*
G04 #@! TD*
G04 #@! TO.P,C4,2*
G04 #@! TO.N,gnd*
X40640000Y-62000000D03*
D11*
G04 #@! TO.P,C4,1*
G04 #@! TO.N,Net-(C4-Pad1)*
X40640000Y-63500000D03*
G04 #@! TD*
G04 #@! TO.P,C5,1*
G04 #@! TO.N,gnd*
X40640000Y-80010000D03*
D10*
G04 #@! TO.P,C5,2*
G04 #@! TO.N,Net-(C5-Pad2)*
X40640000Y-78510000D03*
G04 #@! TD*
D12*
G04 #@! TO.P,D1,1*
G04 #@! TO.N,gnd*
X72390000Y-26670000D03*
D13*
G04 #@! TO.P,D1,2*
G04 #@! TO.N,Net-(D1-Pad2)*
X69850000Y-26670000D03*
G04 #@! TD*
D14*
G04 #@! TO.N,+12V*
G04 #@! TO.C,J4*
G36*
X50654503Y-22781204D02*
X50678772Y-22784804D01*
X50702570Y-22790765D01*
X50725670Y-22799030D01*
X50747849Y-22809520D01*
X50768892Y-22822133D01*
X50788598Y-22836748D01*
X50806776Y-22853224D01*
X50823252Y-22871402D01*
X50837867Y-22891108D01*
X50850480Y-22912151D01*
X50860970Y-22934330D01*
X50869235Y-22957430D01*
X50875196Y-22981228D01*
X50878796Y-23005497D01*
X50880000Y-23030001D01*
X50880000Y-25229999D01*
X50878796Y-25254503D01*
X50875196Y-25278772D01*
X50869235Y-25302570D01*
X50860970Y-25325670D01*
X50850480Y-25347849D01*
X50837867Y-25368892D01*
X50823252Y-25388598D01*
X50806776Y-25406776D01*
X50788598Y-25423252D01*
X50768892Y-25437867D01*
X50747849Y-25450480D01*
X50725670Y-25460970D01*
X50702570Y-25469235D01*
X50678772Y-25475196D01*
X50654503Y-25478796D01*
X50629999Y-25480000D01*
X48430001Y-25480000D01*
X48405497Y-25478796D01*
X48381228Y-25475196D01*
X48357430Y-25469235D01*
X48334330Y-25460970D01*
X48312151Y-25450480D01*
X48291108Y-25437867D01*
X48271402Y-25423252D01*
X48253224Y-25406776D01*
X48236748Y-25388598D01*
X48222133Y-25368892D01*
X48209520Y-25347849D01*
X48199030Y-25325670D01*
X48190765Y-25302570D01*
X48184804Y-25278772D01*
X48181204Y-25254503D01*
X48180000Y-25229999D01*
X48180000Y-23030001D01*
X48181204Y-23005497D01*
X48184804Y-22981228D01*
X48190765Y-22957430D01*
X48199030Y-22934330D01*
X48209520Y-22912151D01*
X48222133Y-22891108D01*
X48236748Y-22871402D01*
X48253224Y-22853224D01*
X48271402Y-22836748D01*
X48291108Y-22822133D01*
X48312151Y-22809520D01*
X48334330Y-22799030D01*
X48357430Y-22790765D01*
X48381228Y-22784804D01*
X48405497Y-22781204D01*
X48430001Y-22780000D01*
X50629999Y-22780000D01*
X50654503Y-22781204D01*
X50654503Y-22781204D01*
G37*
D15*
G04 #@! TD*
G04 #@! TO.P,J4,1*
G04 #@! TO.N,+12V*
X49530000Y-24130000D03*
G04 #@! TO.P,J4,2*
G04 #@! TO.N,gnd*
X54530000Y-24130000D03*
G04 #@! TD*
D14*
G04 #@! TO.N,Net-(Motor1-Pad1)*
G04 #@! TO.C,Motor1*
G36*
X86214503Y-45641204D02*
X86238772Y-45644804D01*
X86262570Y-45650765D01*
X86285670Y-45659030D01*
X86307849Y-45669520D01*
X86328892Y-45682133D01*
X86348598Y-45696748D01*
X86366776Y-45713224D01*
X86383252Y-45731402D01*
X86397867Y-45751108D01*
X86410480Y-45772151D01*
X86420970Y-45794330D01*
X86429235Y-45817430D01*
X86435196Y-45841228D01*
X86438796Y-45865497D01*
X86440000Y-45890001D01*
X86440000Y-48089999D01*
X86438796Y-48114503D01*
X86435196Y-48138772D01*
X86429235Y-48162570D01*
X86420970Y-48185670D01*
X86410480Y-48207849D01*
X86397867Y-48228892D01*
X86383252Y-48248598D01*
X86366776Y-48266776D01*
X86348598Y-48283252D01*
X86328892Y-48297867D01*
X86307849Y-48310480D01*
X86285670Y-48320970D01*
X86262570Y-48329235D01*
X86238772Y-48335196D01*
X86214503Y-48338796D01*
X86189999Y-48340000D01*
X83990001Y-48340000D01*
X83965497Y-48338796D01*
X83941228Y-48335196D01*
X83917430Y-48329235D01*
X83894330Y-48320970D01*
X83872151Y-48310480D01*
X83851108Y-48297867D01*
X83831402Y-48283252D01*
X83813224Y-48266776D01*
X83796748Y-48248598D01*
X83782133Y-48228892D01*
X83769520Y-48207849D01*
X83759030Y-48185670D01*
X83750765Y-48162570D01*
X83744804Y-48138772D01*
X83741204Y-48114503D01*
X83740000Y-48089999D01*
X83740000Y-45890001D01*
X83741204Y-45865497D01*
X83744804Y-45841228D01*
X83750765Y-45817430D01*
X83759030Y-45794330D01*
X83769520Y-45772151D01*
X83782133Y-45751108D01*
X83796748Y-45731402D01*
X83813224Y-45713224D01*
X83831402Y-45696748D01*
X83851108Y-45682133D01*
X83872151Y-45669520D01*
X83894330Y-45659030D01*
X83917430Y-45650765D01*
X83941228Y-45644804D01*
X83965497Y-45641204D01*
X83990001Y-45640000D01*
X86189999Y-45640000D01*
X86214503Y-45641204D01*
X86214503Y-45641204D01*
G37*
D15*
G04 #@! TD*
G04 #@! TO.P,Motor1,1*
G04 #@! TO.N,Net-(Motor1-Pad1)*
X85090000Y-46990000D03*
G04 #@! TO.P,Motor1,2*
G04 #@! TO.N,Net-(Motor1-Pad2)*
X85090000Y-51990000D03*
G04 #@! TD*
G04 #@! TO.P,Motor2,2*
G04 #@! TO.N,Net-(Motor1-Pad2)*
X85090000Y-40560000D03*
D14*
G04 #@! TD*
G04 #@! TO.N,Net-(Motor1-Pad1)*
G04 #@! TO.C,Motor2*
G36*
X86214503Y-34211204D02*
X86238772Y-34214804D01*
X86262570Y-34220765D01*
X86285670Y-34229030D01*
X86307849Y-34239520D01*
X86328892Y-34252133D01*
X86348598Y-34266748D01*
X86366776Y-34283224D01*
X86383252Y-34301402D01*
X86397867Y-34321108D01*
X86410480Y-34342151D01*
X86420970Y-34364330D01*
X86429235Y-34387430D01*
X86435196Y-34411228D01*
X86438796Y-34435497D01*
X86440000Y-34460001D01*
X86440000Y-36659999D01*
X86438796Y-36684503D01*
X86435196Y-36708772D01*
X86429235Y-36732570D01*
X86420970Y-36755670D01*
X86410480Y-36777849D01*
X86397867Y-36798892D01*
X86383252Y-36818598D01*
X86366776Y-36836776D01*
X86348598Y-36853252D01*
X86328892Y-36867867D01*
X86307849Y-36880480D01*
X86285670Y-36890970D01*
X86262570Y-36899235D01*
X86238772Y-36905196D01*
X86214503Y-36908796D01*
X86189999Y-36910000D01*
X83990001Y-36910000D01*
X83965497Y-36908796D01*
X83941228Y-36905196D01*
X83917430Y-36899235D01*
X83894330Y-36890970D01*
X83872151Y-36880480D01*
X83851108Y-36867867D01*
X83831402Y-36853252D01*
X83813224Y-36836776D01*
X83796748Y-36818598D01*
X83782133Y-36798892D01*
X83769520Y-36777849D01*
X83759030Y-36755670D01*
X83750765Y-36732570D01*
X83744804Y-36708772D01*
X83741204Y-36684503D01*
X83740000Y-36659999D01*
X83740000Y-34460001D01*
X83741204Y-34435497D01*
X83744804Y-34411228D01*
X83750765Y-34387430D01*
X83759030Y-34364330D01*
X83769520Y-34342151D01*
X83782133Y-34321108D01*
X83796748Y-34301402D01*
X83813224Y-34283224D01*
X83831402Y-34266748D01*
X83851108Y-34252133D01*
X83872151Y-34239520D01*
X83894330Y-34229030D01*
X83917430Y-34220765D01*
X83941228Y-34214804D01*
X83965497Y-34211204D01*
X83990001Y-34210000D01*
X86189999Y-34210000D01*
X86214503Y-34211204D01*
X86214503Y-34211204D01*
G37*
D15*
G04 #@! TO.P,Motor2,1*
G04 #@! TO.N,Net-(Motor1-Pad1)*
X85090000Y-35560000D03*
G04 #@! TD*
D14*
G04 #@! TO.N,Net-(Motor3-Pad1)*
G04 #@! TO.C,Motor3*
G36*
X31604503Y-41831204D02*
X31628772Y-41834804D01*
X31652570Y-41840765D01*
X31675670Y-41849030D01*
X31697849Y-41859520D01*
X31718892Y-41872133D01*
X31738598Y-41886748D01*
X31756776Y-41903224D01*
X31773252Y-41921402D01*
X31787867Y-41941108D01*
X31800480Y-41962151D01*
X31810970Y-41984330D01*
X31819235Y-42007430D01*
X31825196Y-42031228D01*
X31828796Y-42055497D01*
X31830000Y-42080001D01*
X31830000Y-44279999D01*
X31828796Y-44304503D01*
X31825196Y-44328772D01*
X31819235Y-44352570D01*
X31810970Y-44375670D01*
X31800480Y-44397849D01*
X31787867Y-44418892D01*
X31773252Y-44438598D01*
X31756776Y-44456776D01*
X31738598Y-44473252D01*
X31718892Y-44487867D01*
X31697849Y-44500480D01*
X31675670Y-44510970D01*
X31652570Y-44519235D01*
X31628772Y-44525196D01*
X31604503Y-44528796D01*
X31579999Y-44530000D01*
X29380001Y-44530000D01*
X29355497Y-44528796D01*
X29331228Y-44525196D01*
X29307430Y-44519235D01*
X29284330Y-44510970D01*
X29262151Y-44500480D01*
X29241108Y-44487867D01*
X29221402Y-44473252D01*
X29203224Y-44456776D01*
X29186748Y-44438598D01*
X29172133Y-44418892D01*
X29159520Y-44397849D01*
X29149030Y-44375670D01*
X29140765Y-44352570D01*
X29134804Y-44328772D01*
X29131204Y-44304503D01*
X29130000Y-44279999D01*
X29130000Y-42080001D01*
X29131204Y-42055497D01*
X29134804Y-42031228D01*
X29140765Y-42007430D01*
X29149030Y-41984330D01*
X29159520Y-41962151D01*
X29172133Y-41941108D01*
X29186748Y-41921402D01*
X29203224Y-41903224D01*
X29221402Y-41886748D01*
X29241108Y-41872133D01*
X29262151Y-41859520D01*
X29284330Y-41849030D01*
X29307430Y-41840765D01*
X29331228Y-41834804D01*
X29355497Y-41831204D01*
X29380001Y-41830000D01*
X31579999Y-41830000D01*
X31604503Y-41831204D01*
X31604503Y-41831204D01*
G37*
D15*
G04 #@! TD*
G04 #@! TO.P,Motor3,1*
G04 #@! TO.N,Net-(Motor3-Pad1)*
X30480000Y-43180000D03*
G04 #@! TO.P,Motor3,2*
G04 #@! TO.N,Net-(Motor3-Pad2)*
X30480000Y-38180000D03*
G04 #@! TD*
G04 #@! TO.P,Motor4,2*
G04 #@! TO.N,Net-(Motor3-Pad2)*
X30480000Y-49610000D03*
D14*
G04 #@! TD*
G04 #@! TO.N,Net-(Motor3-Pad1)*
G04 #@! TO.C,Motor4*
G36*
X31604503Y-53261204D02*
X31628772Y-53264804D01*
X31652570Y-53270765D01*
X31675670Y-53279030D01*
X31697849Y-53289520D01*
X31718892Y-53302133D01*
X31738598Y-53316748D01*
X31756776Y-53333224D01*
X31773252Y-53351402D01*
X31787867Y-53371108D01*
X31800480Y-53392151D01*
X31810970Y-53414330D01*
X31819235Y-53437430D01*
X31825196Y-53461228D01*
X31828796Y-53485497D01*
X31830000Y-53510001D01*
X31830000Y-55709999D01*
X31828796Y-55734503D01*
X31825196Y-55758772D01*
X31819235Y-55782570D01*
X31810970Y-55805670D01*
X31800480Y-55827849D01*
X31787867Y-55848892D01*
X31773252Y-55868598D01*
X31756776Y-55886776D01*
X31738598Y-55903252D01*
X31718892Y-55917867D01*
X31697849Y-55930480D01*
X31675670Y-55940970D01*
X31652570Y-55949235D01*
X31628772Y-55955196D01*
X31604503Y-55958796D01*
X31579999Y-55960000D01*
X29380001Y-55960000D01*
X29355497Y-55958796D01*
X29331228Y-55955196D01*
X29307430Y-55949235D01*
X29284330Y-55940970D01*
X29262151Y-55930480D01*
X29241108Y-55917867D01*
X29221402Y-55903252D01*
X29203224Y-55886776D01*
X29186748Y-55868598D01*
X29172133Y-55848892D01*
X29159520Y-55827849D01*
X29149030Y-55805670D01*
X29140765Y-55782570D01*
X29134804Y-55758772D01*
X29131204Y-55734503D01*
X29130000Y-55709999D01*
X29130000Y-53510001D01*
X29131204Y-53485497D01*
X29134804Y-53461228D01*
X29140765Y-53437430D01*
X29149030Y-53414330D01*
X29159520Y-53392151D01*
X29172133Y-53371108D01*
X29186748Y-53351402D01*
X29203224Y-53333224D01*
X29221402Y-53316748D01*
X29241108Y-53302133D01*
X29262151Y-53289520D01*
X29284330Y-53279030D01*
X29307430Y-53270765D01*
X29331228Y-53264804D01*
X29355497Y-53261204D01*
X29380001Y-53260000D01*
X31579999Y-53260000D01*
X31604503Y-53261204D01*
X31604503Y-53261204D01*
G37*
D15*
G04 #@! TO.P,Motor4,1*
G04 #@! TO.N,Net-(Motor3-Pad1)*
X30480000Y-54610000D03*
G04 #@! TD*
D16*
G04 #@! TO.P,R1,1*
G04 #@! TO.N,Net-(BluetoothModule1-Pad5)*
X59690000Y-26670000D03*
D17*
G04 #@! TO.P,R1,2*
G04 #@! TO.N,Net-(D1-Pad2)*
X67310000Y-26670000D03*
G04 #@! TD*
D18*
G04 #@! TO.P,U1,1*
G04 #@! TO.N,Net-(C1-Pad1)*
X46990000Y-33020000D03*
D19*
G04 #@! TO.P,U1,15*
G04 #@! TO.N,Net-(U1-Pad15)*
X54610000Y-66040000D03*
G04 #@! TO.P,U1,2*
G04 #@! TO.N,TXD*
X46990000Y-35560000D03*
D18*
G04 #@! TO.P,U1,16*
G04 #@! TO.N,Net-(U1-Pad16)*
X54610000Y-63500000D03*
D19*
G04 #@! TO.P,U1,3*
G04 #@! TO.N,RXD*
X46990000Y-38100000D03*
D18*
G04 #@! TO.P,U1,17*
G04 #@! TO.N,Net-(U1-Pad17)*
X54610000Y-60960000D03*
G04 #@! TO.P,U1,4*
G04 #@! TO.N,Net-(U1-Pad4)*
X46990000Y-40640000D03*
G04 #@! TO.P,U1,18*
G04 #@! TO.N,Net-(U1-Pad18)*
X54610000Y-58420000D03*
G04 #@! TO.P,U1,5*
G04 #@! TO.N,Net-(U1-Pad5)*
X46990000Y-43180000D03*
G04 #@! TO.P,U1,19*
G04 #@! TO.N,Net-(U1-Pad19)*
X54610000Y-55880000D03*
G04 #@! TO.P,U1,6*
G04 #@! TO.N,Net-(U1-Pad6)*
X46990000Y-45720000D03*
G04 #@! TO.P,U1,20*
G04 #@! TO.N,Net-(U1-Pad20)*
X54610000Y-53340000D03*
D19*
G04 #@! TO.P,U1,7*
G04 #@! TO.N,Net-(BluetoothModule1-Pad5)*
X46990000Y-48260000D03*
D18*
G04 #@! TO.P,U1,21*
G04 #@! TO.N,Net-(U1-Pad21)*
X54610000Y-50800000D03*
D19*
G04 #@! TO.P,U1,8*
G04 #@! TO.N,gnd*
X46990000Y-50800000D03*
G04 #@! TO.P,U1,22*
X54610000Y-48260000D03*
G04 #@! TO.P,U1,9*
G04 #@! TO.N,Net-(C4-Pad1)*
X46990000Y-53340000D03*
G04 #@! TO.P,U1,23*
G04 #@! TO.N,Net-(U1-Pad23)*
X54610000Y-45720000D03*
G04 #@! TO.P,U1,10*
G04 #@! TO.N,Net-(C5-Pad2)*
X46990000Y-55880000D03*
G04 #@! TO.P,U1,24*
G04 #@! TO.N,Net-(U1-Pad24)*
X54610000Y-43180000D03*
D18*
G04 #@! TO.P,U1,11*
G04 #@! TO.N,Net-(U1-Pad11)*
X46990000Y-58420000D03*
D19*
G04 #@! TO.P,U1,25*
G04 #@! TO.N,Net-(U1-Pad25)*
X54610000Y-40640000D03*
D18*
G04 #@! TO.P,U1,12*
G04 #@! TO.N,Net-(U1-Pad12)*
X46990000Y-60960000D03*
D19*
G04 #@! TO.P,U1,26*
G04 #@! TO.N,Net-(U1-Pad26)*
X54610000Y-38100000D03*
D18*
G04 #@! TO.P,U1,13*
G04 #@! TO.N,Net-(U1-Pad13)*
X46990000Y-63500000D03*
G04 #@! TO.P,U1,27*
G04 #@! TO.N,Net-(U1-Pad27)*
X54610000Y-35560000D03*
G04 #@! TO.P,U1,14*
G04 #@! TO.N,Net-(U1-Pad14)*
X46990000Y-66040000D03*
G04 #@! TO.P,U1,28*
G04 #@! TO.N,Net-(U1-Pad28)*
X54610000Y-33020000D03*
G04 #@! TD*
D20*
G04 #@! TO.P,U2,1*
G04 #@! TO.N,Net-(U1-Pad15)*
X63500000Y-48260000D03*
D19*
G04 #@! TO.P,U2,9*
X71120000Y-66040000D03*
G04 #@! TO.P,U2,2*
G04 #@! TO.N,Net-(U1-Pad23)*
X63500000Y-50800000D03*
G04 #@! TO.P,U2,10*
G04 #@! TO.N,Net-(U1-Pad25)*
X71120000Y-63500000D03*
G04 #@! TO.P,U2,3*
G04 #@! TO.N,Net-(Motor1-Pad1)*
X63500000Y-53340000D03*
G04 #@! TO.P,U2,11*
G04 #@! TO.N,Net-(Motor3-Pad1)*
X71120000Y-60960000D03*
G04 #@! TO.P,U2,4*
G04 #@! TO.N,gnd*
X63500000Y-55880000D03*
G04 #@! TO.P,U2,12*
X71120000Y-58420000D03*
G04 #@! TO.P,U2,5*
X63500000Y-58420000D03*
G04 #@! TO.P,U2,13*
X71120000Y-55880000D03*
G04 #@! TO.P,U2,6*
G04 #@! TO.N,Net-(Motor1-Pad2)*
X63500000Y-60960000D03*
G04 #@! TO.P,U2,14*
G04 #@! TO.N,Net-(Motor3-Pad2)*
X71120000Y-53340000D03*
G04 #@! TO.P,U2,7*
G04 #@! TO.N,Net-(U1-Pad24)*
X63500000Y-63500000D03*
G04 #@! TO.P,U2,15*
G04 #@! TO.N,Net-(U1-Pad26)*
X71120000Y-50800000D03*
G04 #@! TO.P,U2,8*
G04 #@! TO.N,+12V*
X63500000Y-66040000D03*
G04 #@! TO.P,U2,16*
X71120000Y-48260000D03*
G04 #@! TD*
D21*
G04 #@! TO.P,U3,1*
G04 #@! TO.N,+12V*
X63500000Y-34290000D03*
D22*
G04 #@! TO.P,U3,2*
G04 #@! TO.N,gnd*
X66040000Y-34290000D03*
G04 #@! TO.P,U3,3*
G04 #@! TO.N,Net-(BluetoothModule1-Pad5)*
X68580000Y-34290000D03*
G04 #@! TD*
D23*
G04 #@! TO.P,Y1,1*
G04 #@! TO.N,Net-(C4-Pad1)*
X40640000Y-68580000D03*
G04 #@! TO.P,Y1,2*
G04 #@! TO.N,Net-(C5-Pad2)*
X40640000Y-73480000D03*
G04 #@! TD*
D14*
G04 #@! TO.N,Net-(BluetoothModule1-Pad1)*
G04 #@! TO.C,BluetoothModule1*
G36*
X49369505Y-74811205D02*
X49393774Y-74814805D01*
X49417572Y-74820766D01*
X49440672Y-74829031D01*
X49462850Y-74839521D01*
X49483894Y-74852134D01*
X49503599Y-74866748D01*
X49521778Y-74883224D01*
X49538254Y-74901403D01*
X49552868Y-74921108D01*
X49565481Y-74942152D01*
X49575971Y-74964330D01*
X49584236Y-74987430D01*
X49590197Y-75011228D01*
X49593797Y-75035497D01*
X49595001Y-75060001D01*
X49595001Y-76510001D01*
X49593797Y-76534505D01*
X49590197Y-76558774D01*
X49584236Y-76582572D01*
X49575971Y-76605672D01*
X49565481Y-76627850D01*
X49552868Y-76648894D01*
X49538254Y-76668599D01*
X49521778Y-76686778D01*
X49503599Y-76703254D01*
X49483894Y-76717868D01*
X49462850Y-76730481D01*
X49440672Y-76740971D01*
X49417572Y-76749236D01*
X49393774Y-76755197D01*
X49369505Y-76758797D01*
X49345001Y-76760001D01*
X48145001Y-76760001D01*
X48120497Y-76758797D01*
X48096228Y-76755197D01*
X48072430Y-76749236D01*
X48049330Y-76740971D01*
X48027152Y-76730481D01*
X48006108Y-76717868D01*
X47986403Y-76703254D01*
X47968224Y-76686778D01*
X47951748Y-76668599D01*
X47937134Y-76648894D01*
X47924521Y-76627850D01*
X47914031Y-76605672D01*
X47905766Y-76582572D01*
X47899805Y-76558774D01*
X47896205Y-76534505D01*
X47895001Y-76510001D01*
X47895001Y-75060001D01*
X47896205Y-75035497D01*
X47899805Y-75011228D01*
X47905766Y-74987430D01*
X47914031Y-74964330D01*
X47924521Y-74942152D01*
X47937134Y-74921108D01*
X47951748Y-74901403D01*
X47968224Y-74883224D01*
X47986403Y-74866748D01*
X48006108Y-74852134D01*
X48027152Y-74839521D01*
X48049330Y-74829031D01*
X48072430Y-74820766D01*
X48096228Y-74814805D01*
X48120497Y-74811205D01*
X48145001Y-74810001D01*
X49345001Y-74810001D01*
X49369505Y-74811205D01*
X49369505Y-74811205D01*
G37*
D24*
G04 #@! TD*
G04 #@! TO.P,BluetoothModule1,1*
G04 #@! TO.N,Net-(BluetoothModule1-Pad1)*
X48745001Y-75785001D03*
D25*
G04 #@! TO.P,BluetoothModule1,2*
G04 #@! TO.N,RXD*
X51245001Y-75785001D03*
G04 #@! TO.P,BluetoothModule1,3*
G04 #@! TO.N,TXD*
X53745001Y-75785001D03*
G04 #@! TO.P,BluetoothModule1,4*
G04 #@! TO.N,gnd*
X56245001Y-75785001D03*
G04 #@! TO.P,BluetoothModule1,5*
G04 #@! TO.N,Net-(BluetoothModule1-Pad5)*
X58745001Y-75785001D03*
G04 #@! TO.P,BluetoothModule1,6*
G04 #@! TO.N,Net-(BluetoothModule1-Pad6)*
X61245001Y-75785001D03*
G04 #@! TD*
D26*
G04 #@! TO.N,*
X58420000Y-40640000D03*
G04 #@! TO.N,Net-(BluetoothModule1-Pad5)*
X38100000Y-30480000D03*
X68580000Y-30480000D03*
G04 #@! TO.N,gnd*
X57150000Y-25400000D03*
G04 #@! TO.N,+12V*
X59690000Y-34290000D03*
G04 #@! TO.N,Net-(U1-Pad15)*
X60960000Y-45720000D03*
G04 #@! TO.N,gnd*
X58420000Y-57150000D03*
X74930000Y-57150000D03*
G04 #@! TO.N,Net-(Motor3-Pad1)*
X77470000Y-62230000D03*
G04 #@! TO.N,Net-(U1-Pad25)*
X76200000Y-68580000D03*
G04 #@! TO.N,Net-(U1-Pad15)*
X72390000Y-68580000D03*
G04 #@! TO.N,Net-(Motor3-Pad1)*
X76200000Y-77470000D03*
G04 #@! TO.N,Net-(U1-Pad15)*
X54610000Y-69850000D03*
G04 #@! TO.N,+12V*
X62230000Y-69850000D03*
G04 #@! TD*
M02*
