G04 #@! TF.GenerationSoftware,KiCad,Pcbnew,(5.0.1)-4*
G04 #@! TF.CreationDate,2020-01-15T00:06:17+05:45*
G04 #@! TF.ProjectId,RC_Car,52435F4361722E6B696361645F706362,rev?*
G04 #@! TF.SameCoordinates,Original*
G04 #@! TF.FileFunction,Legend,Top*
G04 #@! TF.FilePolarity,Positive*
%FSLAX46Y46*%
G04 Gerber Fmt 4.6, Leading zero omitted, Abs format (unit mm)*
G04 Created by KiCad (PCBNEW (5.0.1)-4) date 15-Jan-20 12:06:17 AM*
%MOMM*%
%LPD*%
G01*
G04 APERTURE LIST*
%ADD10C,0.120000*%
%ADD11C,0.150000*%
G04 APERTURE END LIST*
D10*
G04 #@! TO.C,C2*
X62180199Y-39245000D02*
X62180199Y-39645000D01*
X61980199Y-39445000D02*
X62380199Y-39445000D01*
X66331000Y-40270000D02*
X66331000Y-41010000D01*
X66291000Y-40103000D02*
X66291000Y-41177000D01*
X66251000Y-39976000D02*
X66251000Y-41304000D01*
X66211000Y-39872000D02*
X66211000Y-41408000D01*
X66171000Y-39781000D02*
X66171000Y-41499000D01*
X66131000Y-39700000D02*
X66131000Y-41580000D01*
X66091000Y-39627000D02*
X66091000Y-41653000D01*
X66051000Y-39560000D02*
X66051000Y-41720000D01*
X66011000Y-39498000D02*
X66011000Y-41782000D01*
X65971000Y-39440000D02*
X65971000Y-41840000D01*
X65931000Y-39386000D02*
X65931000Y-41894000D01*
X65891000Y-39336000D02*
X65891000Y-41944000D01*
X65851000Y-39289000D02*
X65851000Y-41991000D01*
X65811000Y-41480000D02*
X65811000Y-42036000D01*
X65811000Y-39244000D02*
X65811000Y-39800000D01*
X65771000Y-41480000D02*
X65771000Y-42078000D01*
X65771000Y-39202000D02*
X65771000Y-39800000D01*
X65731000Y-41480000D02*
X65731000Y-42118000D01*
X65731000Y-39162000D02*
X65731000Y-39800000D01*
X65691000Y-41480000D02*
X65691000Y-42156000D01*
X65691000Y-39124000D02*
X65691000Y-39800000D01*
X65651000Y-41480000D02*
X65651000Y-42192000D01*
X65651000Y-39088000D02*
X65651000Y-39800000D01*
X65611000Y-41480000D02*
X65611000Y-42227000D01*
X65611000Y-39053000D02*
X65611000Y-39800000D01*
X65571000Y-41480000D02*
X65571000Y-42259000D01*
X65571000Y-39021000D02*
X65571000Y-39800000D01*
X65531000Y-41480000D02*
X65531000Y-42290000D01*
X65531000Y-38990000D02*
X65531000Y-39800000D01*
X65491000Y-41480000D02*
X65491000Y-42320000D01*
X65491000Y-38960000D02*
X65491000Y-39800000D01*
X65451000Y-41480000D02*
X65451000Y-42348000D01*
X65451000Y-38932000D02*
X65451000Y-39800000D01*
X65411000Y-41480000D02*
X65411000Y-42375000D01*
X65411000Y-38905000D02*
X65411000Y-39800000D01*
X65371000Y-41480000D02*
X65371000Y-42400000D01*
X65371000Y-38880000D02*
X65371000Y-39800000D01*
X65331000Y-41480000D02*
X65331000Y-42425000D01*
X65331000Y-38855000D02*
X65331000Y-39800000D01*
X65291000Y-41480000D02*
X65291000Y-42448000D01*
X65291000Y-38832000D02*
X65291000Y-39800000D01*
X65251000Y-41480000D02*
X65251000Y-42470000D01*
X65251000Y-38810000D02*
X65251000Y-39800000D01*
X65211000Y-41480000D02*
X65211000Y-42491000D01*
X65211000Y-38789000D02*
X65211000Y-39800000D01*
X65171000Y-41480000D02*
X65171000Y-42510000D01*
X65171000Y-38770000D02*
X65171000Y-39800000D01*
X65131000Y-41480000D02*
X65131000Y-42529000D01*
X65131000Y-38751000D02*
X65131000Y-39800000D01*
X65091000Y-41480000D02*
X65091000Y-42547000D01*
X65091000Y-38733000D02*
X65091000Y-39800000D01*
X65051000Y-41480000D02*
X65051000Y-42564000D01*
X65051000Y-38716000D02*
X65051000Y-39800000D01*
X65011000Y-41480000D02*
X65011000Y-42580000D01*
X65011000Y-38700000D02*
X65011000Y-39800000D01*
X64971000Y-41480000D02*
X64971000Y-42594000D01*
X64971000Y-38686000D02*
X64971000Y-39800000D01*
X64930000Y-41480000D02*
X64930000Y-42608000D01*
X64930000Y-38672000D02*
X64930000Y-39800000D01*
X64890000Y-41480000D02*
X64890000Y-42622000D01*
X64890000Y-38658000D02*
X64890000Y-39800000D01*
X64850000Y-41480000D02*
X64850000Y-42634000D01*
X64850000Y-38646000D02*
X64850000Y-39800000D01*
X64810000Y-41480000D02*
X64810000Y-42645000D01*
X64810000Y-38635000D02*
X64810000Y-39800000D01*
X64770000Y-41480000D02*
X64770000Y-42656000D01*
X64770000Y-38624000D02*
X64770000Y-39800000D01*
X64730000Y-41480000D02*
X64730000Y-42665000D01*
X64730000Y-38615000D02*
X64730000Y-39800000D01*
X64690000Y-41480000D02*
X64690000Y-42674000D01*
X64690000Y-38606000D02*
X64690000Y-39800000D01*
X64650000Y-41480000D02*
X64650000Y-42682000D01*
X64650000Y-38598000D02*
X64650000Y-39800000D01*
X64610000Y-41480000D02*
X64610000Y-42690000D01*
X64610000Y-38590000D02*
X64610000Y-39800000D01*
X64570000Y-41480000D02*
X64570000Y-42696000D01*
X64570000Y-38584000D02*
X64570000Y-39800000D01*
X64530000Y-41480000D02*
X64530000Y-42702000D01*
X64530000Y-38578000D02*
X64530000Y-39800000D01*
X64490000Y-41480000D02*
X64490000Y-42707000D01*
X64490000Y-38573000D02*
X64490000Y-39800000D01*
X64450000Y-41480000D02*
X64450000Y-42711000D01*
X64450000Y-38569000D02*
X64450000Y-39800000D01*
X64410000Y-41480000D02*
X64410000Y-42714000D01*
X64410000Y-38566000D02*
X64410000Y-39800000D01*
X64370000Y-41480000D02*
X64370000Y-42717000D01*
X64370000Y-38563000D02*
X64370000Y-39800000D01*
X64330000Y-38561000D02*
X64330000Y-39800000D01*
X64330000Y-41480000D02*
X64330000Y-42719000D01*
X64290000Y-38560000D02*
X64290000Y-39800000D01*
X64290000Y-41480000D02*
X64290000Y-42720000D01*
X64250000Y-38560000D02*
X64250000Y-39800000D01*
X64250000Y-41480000D02*
X64250000Y-42720000D01*
X66370000Y-40640000D02*
G75*
G03X66370000Y-40640000I-2120000J0D01*
G01*
G04 #@! TO.C,C3*
X70990000Y-40640000D02*
G75*
G03X70990000Y-40640000I-2120000J0D01*
G01*
X68870000Y-39800000D02*
X68870000Y-38560000D01*
X68870000Y-42720000D02*
X68870000Y-41480000D01*
X68830000Y-39800000D02*
X68830000Y-38560000D01*
X68830000Y-42720000D02*
X68830000Y-41480000D01*
X68790000Y-39800000D02*
X68790000Y-38561000D01*
X68790000Y-42719000D02*
X68790000Y-41480000D01*
X68750000Y-42717000D02*
X68750000Y-41480000D01*
X68750000Y-39800000D02*
X68750000Y-38563000D01*
X68710000Y-42714000D02*
X68710000Y-41480000D01*
X68710000Y-39800000D02*
X68710000Y-38566000D01*
X68670000Y-42711000D02*
X68670000Y-41480000D01*
X68670000Y-39800000D02*
X68670000Y-38569000D01*
X68630000Y-42707000D02*
X68630000Y-41480000D01*
X68630000Y-39800000D02*
X68630000Y-38573000D01*
X68590000Y-42702000D02*
X68590000Y-41480000D01*
X68590000Y-39800000D02*
X68590000Y-38578000D01*
X68550000Y-42696000D02*
X68550000Y-41480000D01*
X68550000Y-39800000D02*
X68550000Y-38584000D01*
X68510000Y-42690000D02*
X68510000Y-41480000D01*
X68510000Y-39800000D02*
X68510000Y-38590000D01*
X68470000Y-42682000D02*
X68470000Y-41480000D01*
X68470000Y-39800000D02*
X68470000Y-38598000D01*
X68430000Y-42674000D02*
X68430000Y-41480000D01*
X68430000Y-39800000D02*
X68430000Y-38606000D01*
X68390000Y-42665000D02*
X68390000Y-41480000D01*
X68390000Y-39800000D02*
X68390000Y-38615000D01*
X68350000Y-42656000D02*
X68350000Y-41480000D01*
X68350000Y-39800000D02*
X68350000Y-38624000D01*
X68310000Y-42645000D02*
X68310000Y-41480000D01*
X68310000Y-39800000D02*
X68310000Y-38635000D01*
X68270000Y-42634000D02*
X68270000Y-41480000D01*
X68270000Y-39800000D02*
X68270000Y-38646000D01*
X68230000Y-42622000D02*
X68230000Y-41480000D01*
X68230000Y-39800000D02*
X68230000Y-38658000D01*
X68190000Y-42608000D02*
X68190000Y-41480000D01*
X68190000Y-39800000D02*
X68190000Y-38672000D01*
X68149000Y-42594000D02*
X68149000Y-41480000D01*
X68149000Y-39800000D02*
X68149000Y-38686000D01*
X68109000Y-42580000D02*
X68109000Y-41480000D01*
X68109000Y-39800000D02*
X68109000Y-38700000D01*
X68069000Y-42564000D02*
X68069000Y-41480000D01*
X68069000Y-39800000D02*
X68069000Y-38716000D01*
X68029000Y-42547000D02*
X68029000Y-41480000D01*
X68029000Y-39800000D02*
X68029000Y-38733000D01*
X67989000Y-42529000D02*
X67989000Y-41480000D01*
X67989000Y-39800000D02*
X67989000Y-38751000D01*
X67949000Y-42510000D02*
X67949000Y-41480000D01*
X67949000Y-39800000D02*
X67949000Y-38770000D01*
X67909000Y-42491000D02*
X67909000Y-41480000D01*
X67909000Y-39800000D02*
X67909000Y-38789000D01*
X67869000Y-42470000D02*
X67869000Y-41480000D01*
X67869000Y-39800000D02*
X67869000Y-38810000D01*
X67829000Y-42448000D02*
X67829000Y-41480000D01*
X67829000Y-39800000D02*
X67829000Y-38832000D01*
X67789000Y-42425000D02*
X67789000Y-41480000D01*
X67789000Y-39800000D02*
X67789000Y-38855000D01*
X67749000Y-42400000D02*
X67749000Y-41480000D01*
X67749000Y-39800000D02*
X67749000Y-38880000D01*
X67709000Y-42375000D02*
X67709000Y-41480000D01*
X67709000Y-39800000D02*
X67709000Y-38905000D01*
X67669000Y-42348000D02*
X67669000Y-41480000D01*
X67669000Y-39800000D02*
X67669000Y-38932000D01*
X67629000Y-42320000D02*
X67629000Y-41480000D01*
X67629000Y-39800000D02*
X67629000Y-38960000D01*
X67589000Y-42290000D02*
X67589000Y-41480000D01*
X67589000Y-39800000D02*
X67589000Y-38990000D01*
X67549000Y-42259000D02*
X67549000Y-41480000D01*
X67549000Y-39800000D02*
X67549000Y-39021000D01*
X67509000Y-42227000D02*
X67509000Y-41480000D01*
X67509000Y-39800000D02*
X67509000Y-39053000D01*
X67469000Y-42192000D02*
X67469000Y-41480000D01*
X67469000Y-39800000D02*
X67469000Y-39088000D01*
X67429000Y-42156000D02*
X67429000Y-41480000D01*
X67429000Y-39800000D02*
X67429000Y-39124000D01*
X67389000Y-42118000D02*
X67389000Y-41480000D01*
X67389000Y-39800000D02*
X67389000Y-39162000D01*
X67349000Y-42078000D02*
X67349000Y-41480000D01*
X67349000Y-39800000D02*
X67349000Y-39202000D01*
X67309000Y-42036000D02*
X67309000Y-41480000D01*
X67309000Y-39800000D02*
X67309000Y-39244000D01*
X67269000Y-41991000D02*
X67269000Y-39289000D01*
X67229000Y-41944000D02*
X67229000Y-39336000D01*
X67189000Y-41894000D02*
X67189000Y-39386000D01*
X67149000Y-41840000D02*
X67149000Y-39440000D01*
X67109000Y-41782000D02*
X67109000Y-39498000D01*
X67069000Y-41720000D02*
X67069000Y-39560000D01*
X67029000Y-41653000D02*
X67029000Y-39627000D01*
X66989000Y-41580000D02*
X66989000Y-39700000D01*
X66949000Y-41499000D02*
X66949000Y-39781000D01*
X66909000Y-41408000D02*
X66909000Y-39872000D01*
X66869000Y-41304000D02*
X66869000Y-39976000D01*
X66829000Y-41177000D02*
X66829000Y-40103000D01*
X66789000Y-41010000D02*
X66789000Y-40270000D01*
X71139801Y-41835000D02*
X70739801Y-41835000D01*
X70939801Y-42035000D02*
X70939801Y-41635000D01*
G04 #@! TO.C,C4*
X39245000Y-64819801D02*
X39645000Y-64819801D01*
X39445000Y-65019801D02*
X39445000Y-64619801D01*
X40270000Y-60669000D02*
X41010000Y-60669000D01*
X40103000Y-60709000D02*
X41177000Y-60709000D01*
X39976000Y-60749000D02*
X41304000Y-60749000D01*
X39872000Y-60789000D02*
X41408000Y-60789000D01*
X39781000Y-60829000D02*
X41499000Y-60829000D01*
X39700000Y-60869000D02*
X41580000Y-60869000D01*
X39627000Y-60909000D02*
X41653000Y-60909000D01*
X39560000Y-60949000D02*
X41720000Y-60949000D01*
X39498000Y-60989000D02*
X41782000Y-60989000D01*
X39440000Y-61029000D02*
X41840000Y-61029000D01*
X39386000Y-61069000D02*
X41894000Y-61069000D01*
X39336000Y-61109000D02*
X41944000Y-61109000D01*
X39289000Y-61149000D02*
X41991000Y-61149000D01*
X41480000Y-61189000D02*
X42036000Y-61189000D01*
X39244000Y-61189000D02*
X39800000Y-61189000D01*
X41480000Y-61229000D02*
X42078000Y-61229000D01*
X39202000Y-61229000D02*
X39800000Y-61229000D01*
X41480000Y-61269000D02*
X42118000Y-61269000D01*
X39162000Y-61269000D02*
X39800000Y-61269000D01*
X41480000Y-61309000D02*
X42156000Y-61309000D01*
X39124000Y-61309000D02*
X39800000Y-61309000D01*
X41480000Y-61349000D02*
X42192000Y-61349000D01*
X39088000Y-61349000D02*
X39800000Y-61349000D01*
X41480000Y-61389000D02*
X42227000Y-61389000D01*
X39053000Y-61389000D02*
X39800000Y-61389000D01*
X41480000Y-61429000D02*
X42259000Y-61429000D01*
X39021000Y-61429000D02*
X39800000Y-61429000D01*
X41480000Y-61469000D02*
X42290000Y-61469000D01*
X38990000Y-61469000D02*
X39800000Y-61469000D01*
X41480000Y-61509000D02*
X42320000Y-61509000D01*
X38960000Y-61509000D02*
X39800000Y-61509000D01*
X41480000Y-61549000D02*
X42348000Y-61549000D01*
X38932000Y-61549000D02*
X39800000Y-61549000D01*
X41480000Y-61589000D02*
X42375000Y-61589000D01*
X38905000Y-61589000D02*
X39800000Y-61589000D01*
X41480000Y-61629000D02*
X42400000Y-61629000D01*
X38880000Y-61629000D02*
X39800000Y-61629000D01*
X41480000Y-61669000D02*
X42425000Y-61669000D01*
X38855000Y-61669000D02*
X39800000Y-61669000D01*
X41480000Y-61709000D02*
X42448000Y-61709000D01*
X38832000Y-61709000D02*
X39800000Y-61709000D01*
X41480000Y-61749000D02*
X42470000Y-61749000D01*
X38810000Y-61749000D02*
X39800000Y-61749000D01*
X41480000Y-61789000D02*
X42491000Y-61789000D01*
X38789000Y-61789000D02*
X39800000Y-61789000D01*
X41480000Y-61829000D02*
X42510000Y-61829000D01*
X38770000Y-61829000D02*
X39800000Y-61829000D01*
X41480000Y-61869000D02*
X42529000Y-61869000D01*
X38751000Y-61869000D02*
X39800000Y-61869000D01*
X41480000Y-61909000D02*
X42547000Y-61909000D01*
X38733000Y-61909000D02*
X39800000Y-61909000D01*
X41480000Y-61949000D02*
X42564000Y-61949000D01*
X38716000Y-61949000D02*
X39800000Y-61949000D01*
X41480000Y-61989000D02*
X42580000Y-61989000D01*
X38700000Y-61989000D02*
X39800000Y-61989000D01*
X41480000Y-62029000D02*
X42594000Y-62029000D01*
X38686000Y-62029000D02*
X39800000Y-62029000D01*
X41480000Y-62070000D02*
X42608000Y-62070000D01*
X38672000Y-62070000D02*
X39800000Y-62070000D01*
X41480000Y-62110000D02*
X42622000Y-62110000D01*
X38658000Y-62110000D02*
X39800000Y-62110000D01*
X41480000Y-62150000D02*
X42634000Y-62150000D01*
X38646000Y-62150000D02*
X39800000Y-62150000D01*
X41480000Y-62190000D02*
X42645000Y-62190000D01*
X38635000Y-62190000D02*
X39800000Y-62190000D01*
X41480000Y-62230000D02*
X42656000Y-62230000D01*
X38624000Y-62230000D02*
X39800000Y-62230000D01*
X41480000Y-62270000D02*
X42665000Y-62270000D01*
X38615000Y-62270000D02*
X39800000Y-62270000D01*
X41480000Y-62310000D02*
X42674000Y-62310000D01*
X38606000Y-62310000D02*
X39800000Y-62310000D01*
X41480000Y-62350000D02*
X42682000Y-62350000D01*
X38598000Y-62350000D02*
X39800000Y-62350000D01*
X41480000Y-62390000D02*
X42690000Y-62390000D01*
X38590000Y-62390000D02*
X39800000Y-62390000D01*
X41480000Y-62430000D02*
X42696000Y-62430000D01*
X38584000Y-62430000D02*
X39800000Y-62430000D01*
X41480000Y-62470000D02*
X42702000Y-62470000D01*
X38578000Y-62470000D02*
X39800000Y-62470000D01*
X41480000Y-62510000D02*
X42707000Y-62510000D01*
X38573000Y-62510000D02*
X39800000Y-62510000D01*
X41480000Y-62550000D02*
X42711000Y-62550000D01*
X38569000Y-62550000D02*
X39800000Y-62550000D01*
X41480000Y-62590000D02*
X42714000Y-62590000D01*
X38566000Y-62590000D02*
X39800000Y-62590000D01*
X41480000Y-62630000D02*
X42717000Y-62630000D01*
X38563000Y-62630000D02*
X39800000Y-62630000D01*
X38561000Y-62670000D02*
X39800000Y-62670000D01*
X41480000Y-62670000D02*
X42719000Y-62670000D01*
X38560000Y-62710000D02*
X39800000Y-62710000D01*
X41480000Y-62710000D02*
X42720000Y-62710000D01*
X38560000Y-62750000D02*
X39800000Y-62750000D01*
X41480000Y-62750000D02*
X42720000Y-62750000D01*
X42760000Y-62750000D02*
G75*
G03X42760000Y-62750000I-2120000J0D01*
G01*
G04 #@! TO.C,C5*
X42760000Y-79260000D02*
G75*
G03X42760000Y-79260000I-2120000J0D01*
G01*
X41480000Y-79260000D02*
X42720000Y-79260000D01*
X38560000Y-79260000D02*
X39800000Y-79260000D01*
X41480000Y-79220000D02*
X42720000Y-79220000D01*
X38560000Y-79220000D02*
X39800000Y-79220000D01*
X41480000Y-79180000D02*
X42719000Y-79180000D01*
X38561000Y-79180000D02*
X39800000Y-79180000D01*
X38563000Y-79140000D02*
X39800000Y-79140000D01*
X41480000Y-79140000D02*
X42717000Y-79140000D01*
X38566000Y-79100000D02*
X39800000Y-79100000D01*
X41480000Y-79100000D02*
X42714000Y-79100000D01*
X38569000Y-79060000D02*
X39800000Y-79060000D01*
X41480000Y-79060000D02*
X42711000Y-79060000D01*
X38573000Y-79020000D02*
X39800000Y-79020000D01*
X41480000Y-79020000D02*
X42707000Y-79020000D01*
X38578000Y-78980000D02*
X39800000Y-78980000D01*
X41480000Y-78980000D02*
X42702000Y-78980000D01*
X38584000Y-78940000D02*
X39800000Y-78940000D01*
X41480000Y-78940000D02*
X42696000Y-78940000D01*
X38590000Y-78900000D02*
X39800000Y-78900000D01*
X41480000Y-78900000D02*
X42690000Y-78900000D01*
X38598000Y-78860000D02*
X39800000Y-78860000D01*
X41480000Y-78860000D02*
X42682000Y-78860000D01*
X38606000Y-78820000D02*
X39800000Y-78820000D01*
X41480000Y-78820000D02*
X42674000Y-78820000D01*
X38615000Y-78780000D02*
X39800000Y-78780000D01*
X41480000Y-78780000D02*
X42665000Y-78780000D01*
X38624000Y-78740000D02*
X39800000Y-78740000D01*
X41480000Y-78740000D02*
X42656000Y-78740000D01*
X38635000Y-78700000D02*
X39800000Y-78700000D01*
X41480000Y-78700000D02*
X42645000Y-78700000D01*
X38646000Y-78660000D02*
X39800000Y-78660000D01*
X41480000Y-78660000D02*
X42634000Y-78660000D01*
X38658000Y-78620000D02*
X39800000Y-78620000D01*
X41480000Y-78620000D02*
X42622000Y-78620000D01*
X38672000Y-78580000D02*
X39800000Y-78580000D01*
X41480000Y-78580000D02*
X42608000Y-78580000D01*
X38686000Y-78539000D02*
X39800000Y-78539000D01*
X41480000Y-78539000D02*
X42594000Y-78539000D01*
X38700000Y-78499000D02*
X39800000Y-78499000D01*
X41480000Y-78499000D02*
X42580000Y-78499000D01*
X38716000Y-78459000D02*
X39800000Y-78459000D01*
X41480000Y-78459000D02*
X42564000Y-78459000D01*
X38733000Y-78419000D02*
X39800000Y-78419000D01*
X41480000Y-78419000D02*
X42547000Y-78419000D01*
X38751000Y-78379000D02*
X39800000Y-78379000D01*
X41480000Y-78379000D02*
X42529000Y-78379000D01*
X38770000Y-78339000D02*
X39800000Y-78339000D01*
X41480000Y-78339000D02*
X42510000Y-78339000D01*
X38789000Y-78299000D02*
X39800000Y-78299000D01*
X41480000Y-78299000D02*
X42491000Y-78299000D01*
X38810000Y-78259000D02*
X39800000Y-78259000D01*
X41480000Y-78259000D02*
X42470000Y-78259000D01*
X38832000Y-78219000D02*
X39800000Y-78219000D01*
X41480000Y-78219000D02*
X42448000Y-78219000D01*
X38855000Y-78179000D02*
X39800000Y-78179000D01*
X41480000Y-78179000D02*
X42425000Y-78179000D01*
X38880000Y-78139000D02*
X39800000Y-78139000D01*
X41480000Y-78139000D02*
X42400000Y-78139000D01*
X38905000Y-78099000D02*
X39800000Y-78099000D01*
X41480000Y-78099000D02*
X42375000Y-78099000D01*
X38932000Y-78059000D02*
X39800000Y-78059000D01*
X41480000Y-78059000D02*
X42348000Y-78059000D01*
X38960000Y-78019000D02*
X39800000Y-78019000D01*
X41480000Y-78019000D02*
X42320000Y-78019000D01*
X38990000Y-77979000D02*
X39800000Y-77979000D01*
X41480000Y-77979000D02*
X42290000Y-77979000D01*
X39021000Y-77939000D02*
X39800000Y-77939000D01*
X41480000Y-77939000D02*
X42259000Y-77939000D01*
X39053000Y-77899000D02*
X39800000Y-77899000D01*
X41480000Y-77899000D02*
X42227000Y-77899000D01*
X39088000Y-77859000D02*
X39800000Y-77859000D01*
X41480000Y-77859000D02*
X42192000Y-77859000D01*
X39124000Y-77819000D02*
X39800000Y-77819000D01*
X41480000Y-77819000D02*
X42156000Y-77819000D01*
X39162000Y-77779000D02*
X39800000Y-77779000D01*
X41480000Y-77779000D02*
X42118000Y-77779000D01*
X39202000Y-77739000D02*
X39800000Y-77739000D01*
X41480000Y-77739000D02*
X42078000Y-77739000D01*
X39244000Y-77699000D02*
X39800000Y-77699000D01*
X41480000Y-77699000D02*
X42036000Y-77699000D01*
X39289000Y-77659000D02*
X41991000Y-77659000D01*
X39336000Y-77619000D02*
X41944000Y-77619000D01*
X39386000Y-77579000D02*
X41894000Y-77579000D01*
X39440000Y-77539000D02*
X41840000Y-77539000D01*
X39498000Y-77499000D02*
X41782000Y-77499000D01*
X39560000Y-77459000D02*
X41720000Y-77459000D01*
X39627000Y-77419000D02*
X41653000Y-77419000D01*
X39700000Y-77379000D02*
X41580000Y-77379000D01*
X39781000Y-77339000D02*
X41499000Y-77339000D01*
X39872000Y-77299000D02*
X41408000Y-77299000D01*
X39976000Y-77259000D02*
X41304000Y-77259000D01*
X40103000Y-77219000D02*
X41177000Y-77219000D01*
X40270000Y-77179000D02*
X41010000Y-77179000D01*
X39445000Y-81529801D02*
X39445000Y-81129801D01*
X39245000Y-81329801D02*
X39645000Y-81329801D01*
G04 #@! TO.C,D1*
X72680000Y-27906000D02*
X72680000Y-27750000D01*
X72680000Y-25590000D02*
X72680000Y-25434000D01*
X69447665Y-27748608D02*
G75*
G03X72680000Y-27905516I1672335J1078608D01*
G01*
X69447665Y-25591392D02*
G75*
G02X72680000Y-25434484I1672335J-1078608D01*
G01*
X70078870Y-27749837D02*
G75*
G03X72160961Y-27750000I1041130J1079837D01*
G01*
X70078870Y-25590163D02*
G75*
G02X72160961Y-25590000I1041130J-1079837D01*
G01*
G04 #@! TO.C,J4*
X46920000Y-20320000D02*
X46920000Y-29040000D01*
X46920000Y-29040000D02*
X57140000Y-29040000D01*
X57140000Y-29040000D02*
X57140000Y-20320000D01*
X57140000Y-20320000D02*
X46920000Y-20320000D01*
X46720000Y-24130000D02*
X46120000Y-24430000D01*
X46120000Y-24430000D02*
X46120000Y-23830000D01*
X46120000Y-23830000D02*
X46720000Y-24130000D01*
G04 #@! TO.C,Motor1*
X88900000Y-44380000D02*
X80180000Y-44380000D01*
X80180000Y-44380000D02*
X80180000Y-54600000D01*
X80180000Y-54600000D02*
X88900000Y-54600000D01*
X88900000Y-54600000D02*
X88900000Y-44380000D01*
X85090000Y-44180000D02*
X84790000Y-43580000D01*
X84790000Y-43580000D02*
X85390000Y-43580000D01*
X85390000Y-43580000D02*
X85090000Y-44180000D01*
G04 #@! TO.C,Motor2*
X85390000Y-32150000D02*
X85090000Y-32750000D01*
X84790000Y-32150000D02*
X85390000Y-32150000D01*
X85090000Y-32750000D02*
X84790000Y-32150000D01*
X88900000Y-43170000D02*
X88900000Y-32950000D01*
X80180000Y-43170000D02*
X88900000Y-43170000D01*
X80180000Y-32950000D02*
X80180000Y-43170000D01*
X88900000Y-32950000D02*
X80180000Y-32950000D01*
G04 #@! TO.C,Motor3*
X26670000Y-45790000D02*
X35390000Y-45790000D01*
X35390000Y-45790000D02*
X35390000Y-35570000D01*
X35390000Y-35570000D02*
X26670000Y-35570000D01*
X26670000Y-35570000D02*
X26670000Y-45790000D01*
X30480000Y-45990000D02*
X30780000Y-46590000D01*
X30780000Y-46590000D02*
X30180000Y-46590000D01*
X30180000Y-46590000D02*
X30480000Y-45990000D01*
G04 #@! TO.C,Motor4*
X30180000Y-58020000D02*
X30480000Y-57420000D01*
X30780000Y-58020000D02*
X30180000Y-58020000D01*
X30480000Y-57420000D02*
X30780000Y-58020000D01*
X26670000Y-47000000D02*
X26670000Y-57220000D01*
X35390000Y-47000000D02*
X26670000Y-47000000D01*
X35390000Y-57220000D02*
X35390000Y-47000000D01*
X26670000Y-57220000D02*
X35390000Y-57220000D01*
G04 #@! TO.C,R1*
X60230000Y-25630000D02*
X60230000Y-25300000D01*
X60230000Y-25300000D02*
X66770000Y-25300000D01*
X66770000Y-25300000D02*
X66770000Y-25630000D01*
X60230000Y-27710000D02*
X60230000Y-28040000D01*
X60230000Y-28040000D02*
X66770000Y-28040000D01*
X66770000Y-28040000D02*
X66770000Y-27710000D01*
G04 #@! TO.C,U1*
X51800000Y-31690000D02*
G75*
G02X49800000Y-31690000I-1000000J0D01*
G01*
X49800000Y-31690000D02*
X48550000Y-31690000D01*
X48550000Y-31690000D02*
X48550000Y-67370000D01*
X48550000Y-67370000D02*
X53050000Y-67370000D01*
X53050000Y-67370000D02*
X53050000Y-31690000D01*
X53050000Y-31690000D02*
X51800000Y-31690000D01*
X45550000Y-31630000D02*
X45550000Y-67430000D01*
X45550000Y-67430000D02*
X56050000Y-67430000D01*
X56050000Y-67430000D02*
X56050000Y-31630000D01*
X56050000Y-31630000D02*
X45550000Y-31630000D01*
G04 #@! TO.C,U2*
X68310000Y-46930000D02*
G75*
G02X66310000Y-46930000I-1000000J0D01*
G01*
X66310000Y-46930000D02*
X65060000Y-46930000D01*
X65060000Y-46930000D02*
X65060000Y-67370000D01*
X65060000Y-67370000D02*
X69560000Y-67370000D01*
X69560000Y-67370000D02*
X69560000Y-46930000D01*
X69560000Y-46930000D02*
X68310000Y-46930000D01*
X62060000Y-46870000D02*
X62060000Y-67430000D01*
X62060000Y-67430000D02*
X72560000Y-67430000D01*
X72560000Y-67430000D02*
X72560000Y-46870000D01*
X72560000Y-46870000D02*
X62060000Y-46870000D01*
G04 #@! TO.C,U3*
X60920000Y-31020000D02*
X71160000Y-31020000D01*
X60920000Y-35661000D02*
X71160000Y-35661000D01*
X60920000Y-31020000D02*
X60920000Y-35661000D01*
X71160000Y-31020000D02*
X71160000Y-35661000D01*
X60920000Y-32530000D02*
X71160000Y-32530000D01*
X64190000Y-31020000D02*
X64190000Y-32530000D01*
X67891000Y-31020000D02*
X67891000Y-32530000D01*
G04 #@! TO.C,Y1*
X43165000Y-67905000D02*
X43165000Y-74155000D01*
X38115000Y-67905000D02*
X38115000Y-74155000D01*
X38115000Y-67905000D02*
G75*
G02X43165000Y-67905000I2525000J0D01*
G01*
X38115000Y-74155000D02*
G75*
G03X43165000Y-74155000I2525000J0D01*
G01*
G04 #@! TO.C,BluetoothModule1*
X46135001Y-74075001D02*
X46135001Y-78095001D01*
X46135001Y-78095001D02*
X63855001Y-78095001D01*
X63855001Y-78095001D02*
X63855001Y-74075001D01*
X63855001Y-74075001D02*
X46135001Y-74075001D01*
X46135001Y-75785001D02*
X46635001Y-75785001D01*
X46635001Y-75785001D02*
X46635001Y-74575001D01*
X46635001Y-74575001D02*
X63355001Y-74575001D01*
X63355001Y-74575001D02*
X63355001Y-75785001D01*
X63355001Y-75785001D02*
X63855001Y-75785001D01*
X46135001Y-76595001D02*
X47135001Y-76595001D01*
X47135001Y-76595001D02*
X47135001Y-78095001D01*
X63855001Y-76595001D02*
X62855001Y-76595001D01*
X62855001Y-76595001D02*
X62855001Y-78095001D01*
X45835001Y-75895001D02*
X45835001Y-78395001D01*
X45835001Y-78395001D02*
X48335001Y-78395001D01*
G04 #@! TO.C,C2*
D11*
X64083333Y-37747142D02*
X64035714Y-37794761D01*
X63892857Y-37842380D01*
X63797619Y-37842380D01*
X63654761Y-37794761D01*
X63559523Y-37699523D01*
X63511904Y-37604285D01*
X63464285Y-37413809D01*
X63464285Y-37270952D01*
X63511904Y-37080476D01*
X63559523Y-36985238D01*
X63654761Y-36890000D01*
X63797619Y-36842380D01*
X63892857Y-36842380D01*
X64035714Y-36890000D01*
X64083333Y-36937619D01*
X64464285Y-36937619D02*
X64511904Y-36890000D01*
X64607142Y-36842380D01*
X64845238Y-36842380D01*
X64940476Y-36890000D01*
X64988095Y-36937619D01*
X65035714Y-37032857D01*
X65035714Y-37128095D01*
X64988095Y-37270952D01*
X64416666Y-37842380D01*
X65035714Y-37842380D01*
G04 #@! TO.C,C3*
X68703333Y-44247142D02*
X68655714Y-44294761D01*
X68512857Y-44342380D01*
X68417619Y-44342380D01*
X68274761Y-44294761D01*
X68179523Y-44199523D01*
X68131904Y-44104285D01*
X68084285Y-43913809D01*
X68084285Y-43770952D01*
X68131904Y-43580476D01*
X68179523Y-43485238D01*
X68274761Y-43390000D01*
X68417619Y-43342380D01*
X68512857Y-43342380D01*
X68655714Y-43390000D01*
X68703333Y-43437619D01*
X69036666Y-43342380D02*
X69655714Y-43342380D01*
X69322380Y-43723333D01*
X69465238Y-43723333D01*
X69560476Y-43770952D01*
X69608095Y-43818571D01*
X69655714Y-43913809D01*
X69655714Y-44151904D01*
X69608095Y-44247142D01*
X69560476Y-44294761D01*
X69465238Y-44342380D01*
X69179523Y-44342380D01*
X69084285Y-44294761D01*
X69036666Y-44247142D01*
G04 #@! TO.C,C4*
X37747142Y-62916666D02*
X37794761Y-62964285D01*
X37842380Y-63107142D01*
X37842380Y-63202380D01*
X37794761Y-63345238D01*
X37699523Y-63440476D01*
X37604285Y-63488095D01*
X37413809Y-63535714D01*
X37270952Y-63535714D01*
X37080476Y-63488095D01*
X36985238Y-63440476D01*
X36890000Y-63345238D01*
X36842380Y-63202380D01*
X36842380Y-63107142D01*
X36890000Y-62964285D01*
X36937619Y-62916666D01*
X37175714Y-62059523D02*
X37842380Y-62059523D01*
X36794761Y-62297619D02*
X37509047Y-62535714D01*
X37509047Y-61916666D01*
G04 #@! TO.C,C5*
X37747142Y-79426666D02*
X37794761Y-79474285D01*
X37842380Y-79617142D01*
X37842380Y-79712380D01*
X37794761Y-79855238D01*
X37699523Y-79950476D01*
X37604285Y-79998095D01*
X37413809Y-80045714D01*
X37270952Y-80045714D01*
X37080476Y-79998095D01*
X36985238Y-79950476D01*
X36890000Y-79855238D01*
X36842380Y-79712380D01*
X36842380Y-79617142D01*
X36890000Y-79474285D01*
X36937619Y-79426666D01*
X36842380Y-78521904D02*
X36842380Y-78998095D01*
X37318571Y-79045714D01*
X37270952Y-78998095D01*
X37223333Y-78902857D01*
X37223333Y-78664761D01*
X37270952Y-78569523D01*
X37318571Y-78521904D01*
X37413809Y-78474285D01*
X37651904Y-78474285D01*
X37747142Y-78521904D01*
X37794761Y-78569523D01*
X37842380Y-78664761D01*
X37842380Y-78902857D01*
X37794761Y-78998095D01*
X37747142Y-79045714D01*
G04 #@! TO.C,D1*
X70381904Y-30082380D02*
X70381904Y-29082380D01*
X70620000Y-29082380D01*
X70762857Y-29130000D01*
X70858095Y-29225238D01*
X70905714Y-29320476D01*
X70953333Y-29510952D01*
X70953333Y-29653809D01*
X70905714Y-29844285D01*
X70858095Y-29939523D01*
X70762857Y-30034761D01*
X70620000Y-30082380D01*
X70381904Y-30082380D01*
X71905714Y-30082380D02*
X71334285Y-30082380D01*
X71620000Y-30082380D02*
X71620000Y-29082380D01*
X71524761Y-29225238D01*
X71429523Y-29320476D01*
X71334285Y-29368095D01*
G04 #@! TO.C,J4*
X51696666Y-18682380D02*
X51696666Y-19396666D01*
X51649047Y-19539523D01*
X51553809Y-19634761D01*
X51410952Y-19682380D01*
X51315714Y-19682380D01*
X52601428Y-19015714D02*
X52601428Y-19682380D01*
X52363333Y-18634761D02*
X52125238Y-19349047D01*
X52744285Y-19349047D01*
G04 #@! TO.C,Motor1*
X90442380Y-51799523D02*
X89442380Y-51799523D01*
X90156666Y-51466190D01*
X89442380Y-51132857D01*
X90442380Y-51132857D01*
X90442380Y-50513809D02*
X90394761Y-50609047D01*
X90347142Y-50656666D01*
X90251904Y-50704285D01*
X89966190Y-50704285D01*
X89870952Y-50656666D01*
X89823333Y-50609047D01*
X89775714Y-50513809D01*
X89775714Y-50370952D01*
X89823333Y-50275714D01*
X89870952Y-50228095D01*
X89966190Y-50180476D01*
X90251904Y-50180476D01*
X90347142Y-50228095D01*
X90394761Y-50275714D01*
X90442380Y-50370952D01*
X90442380Y-50513809D01*
X89775714Y-49894761D02*
X89775714Y-49513809D01*
X89442380Y-49751904D02*
X90299523Y-49751904D01*
X90394761Y-49704285D01*
X90442380Y-49609047D01*
X90442380Y-49513809D01*
X90442380Y-49037619D02*
X90394761Y-49132857D01*
X90347142Y-49180476D01*
X90251904Y-49228095D01*
X89966190Y-49228095D01*
X89870952Y-49180476D01*
X89823333Y-49132857D01*
X89775714Y-49037619D01*
X89775714Y-48894761D01*
X89823333Y-48799523D01*
X89870952Y-48751904D01*
X89966190Y-48704285D01*
X90251904Y-48704285D01*
X90347142Y-48751904D01*
X90394761Y-48799523D01*
X90442380Y-48894761D01*
X90442380Y-49037619D01*
X90442380Y-48275714D02*
X89775714Y-48275714D01*
X89966190Y-48275714D02*
X89870952Y-48228095D01*
X89823333Y-48180476D01*
X89775714Y-48085238D01*
X89775714Y-47990000D01*
X90442380Y-47132857D02*
X90442380Y-47704285D01*
X90442380Y-47418571D02*
X89442380Y-47418571D01*
X89585238Y-47513809D01*
X89680476Y-47609047D01*
X89728095Y-47704285D01*
G04 #@! TO.C,Motor2*
X90442380Y-40369523D02*
X89442380Y-40369523D01*
X90156666Y-40036190D01*
X89442380Y-39702857D01*
X90442380Y-39702857D01*
X90442380Y-39083809D02*
X90394761Y-39179047D01*
X90347142Y-39226666D01*
X90251904Y-39274285D01*
X89966190Y-39274285D01*
X89870952Y-39226666D01*
X89823333Y-39179047D01*
X89775714Y-39083809D01*
X89775714Y-38940952D01*
X89823333Y-38845714D01*
X89870952Y-38798095D01*
X89966190Y-38750476D01*
X90251904Y-38750476D01*
X90347142Y-38798095D01*
X90394761Y-38845714D01*
X90442380Y-38940952D01*
X90442380Y-39083809D01*
X89775714Y-38464761D02*
X89775714Y-38083809D01*
X89442380Y-38321904D02*
X90299523Y-38321904D01*
X90394761Y-38274285D01*
X90442380Y-38179047D01*
X90442380Y-38083809D01*
X90442380Y-37607619D02*
X90394761Y-37702857D01*
X90347142Y-37750476D01*
X90251904Y-37798095D01*
X89966190Y-37798095D01*
X89870952Y-37750476D01*
X89823333Y-37702857D01*
X89775714Y-37607619D01*
X89775714Y-37464761D01*
X89823333Y-37369523D01*
X89870952Y-37321904D01*
X89966190Y-37274285D01*
X90251904Y-37274285D01*
X90347142Y-37321904D01*
X90394761Y-37369523D01*
X90442380Y-37464761D01*
X90442380Y-37607619D01*
X90442380Y-36845714D02*
X89775714Y-36845714D01*
X89966190Y-36845714D02*
X89870952Y-36798095D01*
X89823333Y-36750476D01*
X89775714Y-36655238D01*
X89775714Y-36560000D01*
X89537619Y-36274285D02*
X89490000Y-36226666D01*
X89442380Y-36131428D01*
X89442380Y-35893333D01*
X89490000Y-35798095D01*
X89537619Y-35750476D01*
X89632857Y-35702857D01*
X89728095Y-35702857D01*
X89870952Y-35750476D01*
X90442380Y-36321904D01*
X90442380Y-35702857D01*
G04 #@! TO.C,Motor3*
X26032380Y-42989523D02*
X25032380Y-42989523D01*
X25746666Y-42656190D01*
X25032380Y-42322857D01*
X26032380Y-42322857D01*
X26032380Y-41703809D02*
X25984761Y-41799047D01*
X25937142Y-41846666D01*
X25841904Y-41894285D01*
X25556190Y-41894285D01*
X25460952Y-41846666D01*
X25413333Y-41799047D01*
X25365714Y-41703809D01*
X25365714Y-41560952D01*
X25413333Y-41465714D01*
X25460952Y-41418095D01*
X25556190Y-41370476D01*
X25841904Y-41370476D01*
X25937142Y-41418095D01*
X25984761Y-41465714D01*
X26032380Y-41560952D01*
X26032380Y-41703809D01*
X25365714Y-41084761D02*
X25365714Y-40703809D01*
X25032380Y-40941904D02*
X25889523Y-40941904D01*
X25984761Y-40894285D01*
X26032380Y-40799047D01*
X26032380Y-40703809D01*
X26032380Y-40227619D02*
X25984761Y-40322857D01*
X25937142Y-40370476D01*
X25841904Y-40418095D01*
X25556190Y-40418095D01*
X25460952Y-40370476D01*
X25413333Y-40322857D01*
X25365714Y-40227619D01*
X25365714Y-40084761D01*
X25413333Y-39989523D01*
X25460952Y-39941904D01*
X25556190Y-39894285D01*
X25841904Y-39894285D01*
X25937142Y-39941904D01*
X25984761Y-39989523D01*
X26032380Y-40084761D01*
X26032380Y-40227619D01*
X26032380Y-39465714D02*
X25365714Y-39465714D01*
X25556190Y-39465714D02*
X25460952Y-39418095D01*
X25413333Y-39370476D01*
X25365714Y-39275238D01*
X25365714Y-39180000D01*
X25032380Y-38941904D02*
X25032380Y-38322857D01*
X25413333Y-38656190D01*
X25413333Y-38513333D01*
X25460952Y-38418095D01*
X25508571Y-38370476D01*
X25603809Y-38322857D01*
X25841904Y-38322857D01*
X25937142Y-38370476D01*
X25984761Y-38418095D01*
X26032380Y-38513333D01*
X26032380Y-38799047D01*
X25984761Y-38894285D01*
X25937142Y-38941904D01*
G04 #@! TO.C,Motor4*
X26032380Y-54419523D02*
X25032380Y-54419523D01*
X25746666Y-54086190D01*
X25032380Y-53752857D01*
X26032380Y-53752857D01*
X26032380Y-53133809D02*
X25984761Y-53229047D01*
X25937142Y-53276666D01*
X25841904Y-53324285D01*
X25556190Y-53324285D01*
X25460952Y-53276666D01*
X25413333Y-53229047D01*
X25365714Y-53133809D01*
X25365714Y-52990952D01*
X25413333Y-52895714D01*
X25460952Y-52848095D01*
X25556190Y-52800476D01*
X25841904Y-52800476D01*
X25937142Y-52848095D01*
X25984761Y-52895714D01*
X26032380Y-52990952D01*
X26032380Y-53133809D01*
X25365714Y-52514761D02*
X25365714Y-52133809D01*
X25032380Y-52371904D02*
X25889523Y-52371904D01*
X25984761Y-52324285D01*
X26032380Y-52229047D01*
X26032380Y-52133809D01*
X26032380Y-51657619D02*
X25984761Y-51752857D01*
X25937142Y-51800476D01*
X25841904Y-51848095D01*
X25556190Y-51848095D01*
X25460952Y-51800476D01*
X25413333Y-51752857D01*
X25365714Y-51657619D01*
X25365714Y-51514761D01*
X25413333Y-51419523D01*
X25460952Y-51371904D01*
X25556190Y-51324285D01*
X25841904Y-51324285D01*
X25937142Y-51371904D01*
X25984761Y-51419523D01*
X26032380Y-51514761D01*
X26032380Y-51657619D01*
X26032380Y-50895714D02*
X25365714Y-50895714D01*
X25556190Y-50895714D02*
X25460952Y-50848095D01*
X25413333Y-50800476D01*
X25365714Y-50705238D01*
X25365714Y-50610000D01*
X25365714Y-49848095D02*
X26032380Y-49848095D01*
X24984761Y-50086190D02*
X25699047Y-50324285D01*
X25699047Y-49705238D01*
G04 #@! TO.C,R1*
X63333333Y-24752380D02*
X63000000Y-24276190D01*
X62761904Y-24752380D02*
X62761904Y-23752380D01*
X63142857Y-23752380D01*
X63238095Y-23800000D01*
X63285714Y-23847619D01*
X63333333Y-23942857D01*
X63333333Y-24085714D01*
X63285714Y-24180952D01*
X63238095Y-24228571D01*
X63142857Y-24276190D01*
X62761904Y-24276190D01*
X64285714Y-24752380D02*
X63714285Y-24752380D01*
X64000000Y-24752380D02*
X64000000Y-23752380D01*
X63904761Y-23895238D01*
X63809523Y-23990476D01*
X63714285Y-24038095D01*
G04 #@! TO.C,U1*
X50038095Y-30142380D02*
X50038095Y-30951904D01*
X50085714Y-31047142D01*
X50133333Y-31094761D01*
X50228571Y-31142380D01*
X50419047Y-31142380D01*
X50514285Y-31094761D01*
X50561904Y-31047142D01*
X50609523Y-30951904D01*
X50609523Y-30142380D01*
X51609523Y-31142380D02*
X51038095Y-31142380D01*
X51323809Y-31142380D02*
X51323809Y-30142380D01*
X51228571Y-30285238D01*
X51133333Y-30380476D01*
X51038095Y-30428095D01*
G04 #@! TO.C,U2*
X66548095Y-45382380D02*
X66548095Y-46191904D01*
X66595714Y-46287142D01*
X66643333Y-46334761D01*
X66738571Y-46382380D01*
X66929047Y-46382380D01*
X67024285Y-46334761D01*
X67071904Y-46287142D01*
X67119523Y-46191904D01*
X67119523Y-45382380D01*
X67548095Y-45477619D02*
X67595714Y-45430000D01*
X67690952Y-45382380D01*
X67929047Y-45382380D01*
X68024285Y-45430000D01*
X68071904Y-45477619D01*
X68119523Y-45572857D01*
X68119523Y-45668095D01*
X68071904Y-45810952D01*
X67500476Y-46382380D01*
X68119523Y-46382380D01*
G04 #@! TO.C,U3*
X65278095Y-29472380D02*
X65278095Y-30281904D01*
X65325714Y-30377142D01*
X65373333Y-30424761D01*
X65468571Y-30472380D01*
X65659047Y-30472380D01*
X65754285Y-30424761D01*
X65801904Y-30377142D01*
X65849523Y-30281904D01*
X65849523Y-29472380D01*
X66230476Y-29472380D02*
X66849523Y-29472380D01*
X66516190Y-29853333D01*
X66659047Y-29853333D01*
X66754285Y-29900952D01*
X66801904Y-29948571D01*
X66849523Y-30043809D01*
X66849523Y-30281904D01*
X66801904Y-30377142D01*
X66754285Y-30424761D01*
X66659047Y-30472380D01*
X66373333Y-30472380D01*
X66278095Y-30424761D01*
X66230476Y-30377142D01*
G04 #@! TO.C,Y1*
X44141190Y-71506190D02*
X44617380Y-71506190D01*
X43617380Y-71839523D02*
X44141190Y-71506190D01*
X43617380Y-71172857D01*
X44617380Y-70315714D02*
X44617380Y-70887142D01*
X44617380Y-70601428D02*
X43617380Y-70601428D01*
X43760238Y-70696666D01*
X43855476Y-70791904D01*
X43903095Y-70887142D01*
G04 #@! TO.C,BluetoothModule1*
X48899762Y-72913572D02*
X49042620Y-72961191D01*
X49090239Y-73008810D01*
X49137858Y-73104048D01*
X49137858Y-73246905D01*
X49090239Y-73342143D01*
X49042620Y-73389762D01*
X48947381Y-73437381D01*
X48566429Y-73437381D01*
X48566429Y-72437381D01*
X48899762Y-72437381D01*
X48995001Y-72485001D01*
X49042620Y-72532620D01*
X49090239Y-72627858D01*
X49090239Y-72723096D01*
X49042620Y-72818334D01*
X48995001Y-72865953D01*
X48899762Y-72913572D01*
X48566429Y-72913572D01*
X49709286Y-73437381D02*
X49614048Y-73389762D01*
X49566429Y-73294524D01*
X49566429Y-72437381D01*
X50518810Y-72770715D02*
X50518810Y-73437381D01*
X50090239Y-72770715D02*
X50090239Y-73294524D01*
X50137858Y-73389762D01*
X50233096Y-73437381D01*
X50375953Y-73437381D01*
X50471191Y-73389762D01*
X50518810Y-73342143D01*
X51375953Y-73389762D02*
X51280715Y-73437381D01*
X51090239Y-73437381D01*
X50995001Y-73389762D01*
X50947381Y-73294524D01*
X50947381Y-72913572D01*
X50995001Y-72818334D01*
X51090239Y-72770715D01*
X51280715Y-72770715D01*
X51375953Y-72818334D01*
X51423572Y-72913572D01*
X51423572Y-73008810D01*
X50947381Y-73104048D01*
X51709286Y-72770715D02*
X52090239Y-72770715D01*
X51852143Y-72437381D02*
X51852143Y-73294524D01*
X51899762Y-73389762D01*
X51995001Y-73437381D01*
X52090239Y-73437381D01*
X52566429Y-73437381D02*
X52471191Y-73389762D01*
X52423572Y-73342143D01*
X52375953Y-73246905D01*
X52375953Y-72961191D01*
X52423572Y-72865953D01*
X52471191Y-72818334D01*
X52566429Y-72770715D01*
X52709286Y-72770715D01*
X52804524Y-72818334D01*
X52852143Y-72865953D01*
X52899762Y-72961191D01*
X52899762Y-73246905D01*
X52852143Y-73342143D01*
X52804524Y-73389762D01*
X52709286Y-73437381D01*
X52566429Y-73437381D01*
X53471191Y-73437381D02*
X53375953Y-73389762D01*
X53328334Y-73342143D01*
X53280715Y-73246905D01*
X53280715Y-72961191D01*
X53328334Y-72865953D01*
X53375953Y-72818334D01*
X53471191Y-72770715D01*
X53614048Y-72770715D01*
X53709286Y-72818334D01*
X53756905Y-72865953D01*
X53804524Y-72961191D01*
X53804524Y-73246905D01*
X53756905Y-73342143D01*
X53709286Y-73389762D01*
X53614048Y-73437381D01*
X53471191Y-73437381D01*
X54090239Y-72770715D02*
X54471191Y-72770715D01*
X54233096Y-72437381D02*
X54233096Y-73294524D01*
X54280715Y-73389762D01*
X54375953Y-73437381D01*
X54471191Y-73437381D01*
X54804524Y-73437381D02*
X54804524Y-72437381D01*
X55233096Y-73437381D02*
X55233096Y-72913572D01*
X55185477Y-72818334D01*
X55090239Y-72770715D01*
X54947381Y-72770715D01*
X54852143Y-72818334D01*
X54804524Y-72865953D01*
X55709286Y-73437381D02*
X55709286Y-72437381D01*
X56042620Y-73151667D01*
X56375953Y-72437381D01*
X56375953Y-73437381D01*
X56995001Y-73437381D02*
X56899762Y-73389762D01*
X56852143Y-73342143D01*
X56804524Y-73246905D01*
X56804524Y-72961191D01*
X56852143Y-72865953D01*
X56899762Y-72818334D01*
X56995001Y-72770715D01*
X57137858Y-72770715D01*
X57233096Y-72818334D01*
X57280715Y-72865953D01*
X57328334Y-72961191D01*
X57328334Y-73246905D01*
X57280715Y-73342143D01*
X57233096Y-73389762D01*
X57137858Y-73437381D01*
X56995001Y-73437381D01*
X58185477Y-73437381D02*
X58185477Y-72437381D01*
X58185477Y-73389762D02*
X58090239Y-73437381D01*
X57899762Y-73437381D01*
X57804524Y-73389762D01*
X57756905Y-73342143D01*
X57709286Y-73246905D01*
X57709286Y-72961191D01*
X57756905Y-72865953D01*
X57804524Y-72818334D01*
X57899762Y-72770715D01*
X58090239Y-72770715D01*
X58185477Y-72818334D01*
X59090239Y-72770715D02*
X59090239Y-73437381D01*
X58661667Y-72770715D02*
X58661667Y-73294524D01*
X58709286Y-73389762D01*
X58804524Y-73437381D01*
X58947381Y-73437381D01*
X59042620Y-73389762D01*
X59090239Y-73342143D01*
X59709286Y-73437381D02*
X59614048Y-73389762D01*
X59566429Y-73294524D01*
X59566429Y-72437381D01*
X60471191Y-73389762D02*
X60375953Y-73437381D01*
X60185477Y-73437381D01*
X60090239Y-73389762D01*
X60042620Y-73294524D01*
X60042620Y-72913572D01*
X60090239Y-72818334D01*
X60185477Y-72770715D01*
X60375953Y-72770715D01*
X60471191Y-72818334D01*
X60518810Y-72913572D01*
X60518810Y-73008810D01*
X60042620Y-73104048D01*
X61471191Y-73437381D02*
X60899762Y-73437381D01*
X61185477Y-73437381D02*
X61185477Y-72437381D01*
X61090239Y-72580239D01*
X60995001Y-72675477D01*
X60899762Y-72723096D01*
G04 #@! TD*
M02*
